<?xml version="1.0" standalone="no"?>
<!DOCTYPE svg PUBLIC "-//W3C//DTD SVG 20010904//EN"
 "http://www.w3.org/TR/2001/REC-SVG-20010904/DTD/svg10.dtd">
<svg version="1.0" xmlns="http://www.w3.org/2000/svg"
 width="795.000000pt" height="795.000000pt" viewBox="0 0 795.000000 795.000000"
 preserveAspectRatio="xMidYMid meet">
<metadata>
Created by potrace 1.11, written by Peter Selinger 2001-2013
</metadata>
<g transform="translate(0.000000,795.000000) scale(0.100000,-0.100000)"
fill="#000000" stroke="none">
<path d="M3759 7876 c-2 -2 -49 -7 -104 -11 -55 -3 -107 -8 -115 -10 -8 -2
-40 -7 -71 -9 -76 -8 -120 -14 -212 -32 -42 -9 -89 -18 -103 -20 -65 -12 -307
-77 -398 -108 -370 -124 -732 -307 -1031 -520 -27 -20 -59 -41 -69 -48 -29
-19 -244 -196 -296 -242 -73 -67 -260 -257 -325 -330 -148 -169 -330 -423
-444 -621 -43 -74 -179 -345 -211 -420 -77 -182 -169 -464 -206 -630 -8 -34
-25 -119 -30 -145 -2 -14 -7 -36 -9 -50 -15 -72 -17 -85 -34 -215 -33 -243
-36 -697 -7 -925 2 -14 7 -54 11 -90 4 -36 9 -74 11 -85 3 -11 9 -42 14 -70
17 -99 21 -116 36 -182 9 -38 18 -77 21 -88 2 -11 8 -36 13 -55 8 -37 53 -182
88 -285 56 -163 222 -534 272 -605 9 -14 32 -52 50 -85 159 -291 488 -690 780
-946 184 -161 475 -371 640 -461 251 -137 419 -215 630 -291 203 -73 557 -163
715 -182 90 -10 140 -16 165 -21 116 -18 572 -26 750 -11 364 29 746 116 1075
243 237 91 430 186 653 321 366 222 776 586 1017 903 27 36 52 67 55 70 8 6
114 158 163 232 147 224 326 586 402 814 38 114 84 263 90 288 2 12 15 66 29
121 14 55 27 114 30 130 19 102 36 207 41 250 4 28 8 61 11 75 18 116 26 586
12 750 -16 177 -19 206 -28 255 -5 28 -12 70 -15 95 -4 25 -10 63 -15 85 -5
22 -12 56 -15 75 -17 97 -120 453 -155 535 -4 11 -20 52 -35 90 -41 108 -175
388 -231 485 -102 176 -206 330 -327 485 -542 694 -1314 1187 -2177 1391 -132
31 -360 70 -465 79 -44 4 -93 9 -110 12 -37 6 -531 14 -536 9z"/>
</g>
</svg>
